<?xml version="1.0" encoding="utf-8"?>
<!-- Generator: Adobe Illustrator 26.3.1, SVG Export Plug-In . SVG Version: 6.00 Build 0)  -->
<svg version="1.1" id="Layer_1" xmlns="http://www.w3.org/2000/svg" xmlns:xlink="http://www.w3.org/1999/xlink" x="0px" y="0px"
	 viewBox="0 0 32 32" style="enable-background:new 0 0 32 32;" xml:space="preserve">
<style type="text/css">
	.st0{fill:#777E91;}
</style>
<path class="st0" d="M6.7,14.7c-0.7,0-1.3,0.6-1.3,1.3c0,0.7,0.6,1.3,1.3,1.3h18.7c0.7,0,1.3-0.6,1.3-1.3c0-0.7-0.6-1.3-1.3-1.3H6.7
	z"/>
<path class="st0" d="M6.7,22.7c-0.7,0-1.3,0.6-1.3,1.3s0.6,1.3,1.3,1.3h18.7c0.7,0,1.3-0.6,1.3-1.3s-0.6-1.3-1.3-1.3H6.7z"/>
<path class="st0" d="M6.7,6.7C5.9,6.7,5.3,7.3,5.3,8c0,0.7,0.6,1.3,1.3,1.3h18.7c0.7,0,1.3-0.6,1.3-1.3c0-0.7-0.6-1.3-1.3-1.3H6.7z"
	/>
</svg>
